<svg xmlns="http://www.w3.org/2000/svg" viewBox="0 0 402 402"><path d="M55 292c-15 0-28 6-39 16a53 53 0 00-16 39c0 15 5 28 16 39s24 16 39 16 28-5 39-16c10-11 16-24 16-39s-6-28-16-39a53 53 0 00-39-16zm126-71a252 252 0 00-161-75h-2c-5 0-9 2-12 5-4 3-6 8-6 13v39c0 5 2 9 5 12 3 4 7 6 12 6 43 4 80 22 111 53s49 68 53 111c0 5 2 9 6 12 3 3 7 5 12 5h39c5 0 10-2 13-6 4-4 5-8 5-14a256 256 0 00-75-161zm187 19A400 400 0 00162 34C117 14 69 2 19 0h-1C13 0 9 2 6 5c-4 4-6 8-6 13v41c0 5 2 9 5 13 3 3 7 5 12 5a323 323 0 01213 95 328 328 0 0195 213c0 5 2 9 5 12 4 3 8 5 13 5h41c5 0 9-2 13-6 4-3 5-8 5-13-2-50-14-98-34-143z"/></svg>